<?xml version="1.0" encoding="utf-8"?>
<!-- Generator: Adobe Illustrator 19.1.0, SVG Export Plug-In . SVG Version: 6.00 Build 0)  -->
<svg version="1.1" id="Layer_1" xmlns="http://www.w3.org/2000/svg" xmlns:xlink="http://www.w3.org/1999/xlink" x="0px" y="0px"
	 viewBox="0 0 591.3 591.3" style="enable-background:new 0 0 591.3 591.3;" xml:space="preserve">
<style type="text/css">
	.st0{fill:#FFFFFF;}
</style>
<g>
	<path class="st0" d="M253.8,143.1c-1.9,1.1-1.4,5.5,1.2,9.8c2.5,4.3,6.1,6.8,8.1,5.7c1.9-1.2,1.4-5.6-1.1-9.8
		C259.4,144.4,255.8,141.9,253.8,143.1z"/>
	<path class="st0" d="M282.3,109.1c-2.6,2.6-0.3,9.2,5.2,14.8c5.5,5.6,12.1,8,14.6,5.4c2.6-2.6,0.3-9.3-5.2-14.8
		C291.5,108.9,284.9,106.5,282.3,109.1z"/>
	<path class="st0" d="M234.4,101.4c-6-2.3-11.7-1.8-12.7,1c-1,2.8,3,7,9,9.3c6,2.3,11.7,1.8,12.7-1
		C244.5,107.8,240.4,103.7,234.4,101.4z"/>
	<path class="st0" d="M201.4,133.6c-7.6,0-13.9,2.9-13.9,6.5c0,3.6,6.2,6.5,13.9,6.5c7.7,0,13.9-2.9,13.9-6.5
		C215.3,136.6,209.1,133.6,201.4,133.6z"/>
	<path class="st0" d="M120.7,150.3c-5,2.5-8.1,6.4-6.8,8.8c1.3,2.3,6.4,2.2,11.4-0.3c5-2.5,8-6.4,6.8-8.8
		C130.9,147.6,125.7,147.8,120.7,150.3z"/>
	<path class="st0" d="M164.1,115.7c-3.9,4.6-5.4,9.9-3.2,11.8c2.1,2,7-0.2,10.9-4.8c3.9-4.6,5.4-9.8,3.2-11.8
		C172.9,109,168,111.1,164.1,115.7z"/>
	<path class="st0" d="M349.7,102.3c-5,2.5-8.1,6.4-6.8,8.8c1.2,2.3,6.4,2.2,11.4-0.3c5-2.5,8.1-6.4,6.8-8.8
		C359.8,99.6,354.7,99.8,349.7,102.3z"/>
	<path class="st0" d="M328,139.7c-2.5,0.1-4.4,4.5-4.2,9.8c0.2,5.3,2.4,9.5,4.9,9.4c2.5-0.1,4.4-4.5,4.2-9.8
		C332.7,143.8,330.5,139.6,328,139.7z"/>
	<path class="st0" d="M586.3,218.8c0-116-116.8-193.9-290.7-193.9C121.7,24.9,4.9,102.8,4.9,218.8v18.5h15.2
		c-9.4,10-15.2,23.4-15.2,38.2v5.3c0,19.8,10.4,37.2,25.9,47.2c-15.5,10-25.9,27.4-25.9,47.2v6.3c0,14.8,5.9,28.1,15.2,38.2H4.9
		v18.5c0,59.6,30.2,97.1,92.3,114.9c51.5,14.7,121.6,14.7,195.9,14.7h5.1c148.2,0,288.2,0,288.2-129.6v-18.5h-15.2
		c9.4-10.1,15.2-23.4,15.2-38.2v-6.3c0-19.8-10.4-37.2-25.9-47.2c15.5-10,25.9-27.4,25.9-47.2v-5.3c0-14.8-5.9-28.2-15.2-38.2h15.2
		V218.8z M295.6,525.3c-136.2,0-246.6,0.3-246.6-100.6h493.1C542.2,525.6,431.8,525.3,295.6,525.3z M542.2,373.4
		c0,18.9-15.3,34.2-34.2,34.2H83.3c-18.9,0-34.2-15.3-34.2-34.2v-5.7c0-18.9,15.3-34.2,34.2-34.2h234.9l87.4,49.6
		c5.5,3.1,12.5,1.2,15.6-4.3l25.7-45.3H508c18.9,0,34.2,15.3,34.2,34.2V373.4z M542.2,282.2c0,18.9-15.3,34.2-34.2,34.2H83.3
		c-18.9,0-34.2-15.3-34.2-34.2v-4.8c0-18.9,15.3-34.2,34.2-34.2h12.5c7.7,10,28.4,17.1,52.8,17.1c24.4,0,45.1-7.1,52.8-17.1h41.4
		c7.7,10,28.4,17.1,52.8,17.1c24.4,0,45.1-7.1,52.8-17.1h41.4c7.7,10,28.4,17.1,52.8,17.1c24.4,0,45.1-7.1,52.8-17.1H508
		c18.9,0,34.2,15.3,34.2,34.2V282.2z M49.1,226.1c0-100.9,110.4-158.9,246.6-158.9c136.1,0,246.5,58,246.5,158.9H49.1z"/>
	<path class="st0" d="M441.3,127.9c-2.3,1.8-1,6.9,2.9,11.6c3.9,4.6,8.8,6.9,11.1,5.2c2.3-1.8,1-6.9-2.8-11.6
		C448.6,128.4,443.6,126.1,441.3,127.9z"/>
	<path class="st0" d="M425.1,154.2c-2.3,1.8-1,6.9,2.9,11.6c3.9,4.6,8.8,6.9,11.1,5.2c2.3-1.8,1-6.9-2.8-11.5
		C432.3,154.7,427.3,152.4,425.1,154.2z"/>
	<path class="st0" d="M393.6,132.4c-6.9-2.7-13.4-2.2-14.5,1.1c-1.1,3.3,3.6,8.1,10.5,10.8c6.9,2.7,13.4,2.1,14.5-1.1
		C405.2,139.9,400.5,135.1,393.6,132.4z"/>
</g>
</svg>
